<svg width="95" height="63" viewBox="0 0 95 63" fill="none" xmlns="http://www.w3.org/2000/svg">
<g filter="url(#filter0_dd_2889_14559)">
<path fill-rule="evenodd" clip-rule="evenodd" d="M34.6001 30.2344L27.0001 24.263L19.4001 30.2344L19.4001 9.3999L34.6001 9.3999L34.6001 30.2344ZM33.4001 10.5999L20.6001 10.5999L20.6001 27.7654L27.0001 22.7369L33.4001 27.7654L33.4001 10.5999Z" fill="white"/>
</g>
<path fill-rule="evenodd" clip-rule="evenodd" d="M80.9999 9.3999C79.0117 9.3999 77.3999 11.0117 77.3999 12.9999C77.3999 13.4473 77.4815 13.8756 77.6306 14.2707L71.0604 18.1033C70.4254 17.0808 69.2922 16.3999 67.9999 16.3999C66.0117 16.3999 64.3999 18.0117 64.3999 19.9999C64.3999 21.9881 66.0117 23.5999 67.9999 23.5999C69.2921 23.5999 70.4253 22.919 71.0604 21.8965L77.6306 25.7291C77.4815 26.1243 77.3999 26.5526 77.3999 26.9999C77.3999 28.9881 79.0117 30.5999 80.9999 30.5999C82.9881 30.5999 84.5999 28.9881 84.5999 26.9999C84.5999 25.0117 82.9881 23.3999 80.9999 23.3999C79.8894 23.3999 78.8964 23.9027 78.236 24.693L71.5166 20.7734C71.5712 20.5242 71.5999 20.2654 71.5999 19.9999C71.5999 19.7344 71.5712 19.4756 71.5166 19.2265L78.236 15.3068C78.8964 16.0971 79.8894 16.5999 80.9999 16.5999C82.9881 16.5999 84.5999 14.9881 84.5999 12.9999C84.5999 11.0117 82.9881 9.3999 80.9999 9.3999ZM78.5999 12.9999C78.5999 11.6744 79.6744 10.5999 80.9999 10.5999C82.3254 10.5999 83.3999 11.6744 83.3999 12.9999C83.3999 14.3254 82.3254 15.3999 80.9999 15.3999C79.6744 15.3999 78.5999 14.3254 78.5999 12.9999ZM78.5999 26.9999C78.5999 25.6744 79.6744 24.5999 80.9999 24.5999C82.3254 24.5999 83.3999 25.6744 83.3999 26.9999C83.3999 28.3254 82.3254 29.3999 80.9999 29.3999C79.6744 29.3999 78.5999 28.3254 78.5999 26.9999ZM65.5999 19.9999C65.5999 18.6744 66.6744 17.5999 67.9999 17.5999C69.3254 17.5999 70.3999 18.6744 70.3999 19.9999C70.3999 21.3254 69.3254 22.3999 67.9999 22.3999C66.6744 22.3999 65.5999 21.3254 65.5999 19.9999Z" fill="white"/>
<defs>
<filter id="filter0_dd_2889_14559" x="-8" y="-5" width="70" height="76" filterUnits="userSpaceOnUse" color-interpolation-filters="sRGB">
<feFlood flood-opacity="0" result="BackgroundImageFix"/>
<feColorMatrix in="SourceAlpha" type="matrix" values="0 0 0 0 0 0 0 0 0 0 0 0 0 0 0 0 0 0 127 0" result="hardAlpha"/>
<feMorphology radius="1" operator="erode" in="SourceAlpha" result="effect1_dropShadow_2889_14559"/>
<feOffset dy="16"/>
<feGaussianBlur stdDeviation="8"/>
<feComposite in2="hardAlpha" operator="out"/>
<feColorMatrix type="matrix" values="0 0 0 0 0.129412 0 0 0 0 0.145098 0 0 0 0 0.160784 0 0 0 0.1 0"/>
<feBlend mode="normal" in2="BackgroundImageFix" result="effect1_dropShadow_2889_14559"/>
<feColorMatrix in="SourceAlpha" type="matrix" values="0 0 0 0 0 0 0 0 0 0 0 0 0 0 0 0 0 0 127 0" result="hardAlpha"/>
<feOffset/>
<feGaussianBlur stdDeviation="2.5"/>
<feComposite in2="hardAlpha" operator="out"/>
<feColorMatrix type="matrix" values="0 0 0 0 0.129412 0 0 0 0 0.145098 0 0 0 0 0.160784 0 0 0 0.06 0"/>
<feBlend mode="normal" in2="effect1_dropShadow_2889_14559" result="effect2_dropShadow_2889_14559"/>
<feBlend mode="normal" in="SourceGraphic" in2="effect2_dropShadow_2889_14559" result="shape"/>
</filter>
</defs>
</svg>
