<svg width="17" height="19" viewBox="0 0 17 19" fill="none" xmlns="http://www.w3.org/2000/svg">
<g id="Frame 3336">
<g id="Group 2709">
<path id="Vector" d="M9.2 17.769C6.67 17.669 4.52 15.699 3.45 13.399C2.38 11.099 2.18 8.509 2 5.979C4.73 5.829 7.38 4.429 9.33 2.229C10.34 4.629 13.07 6.169 15.64 5.809C15.9 8.439 15.95 11.199 14.84 13.599C13.73 15.999 11.17 17.839 9.19 17.769H9.2Z" stroke="#00C4C4" stroke-width="2" stroke-miterlimit="10" stroke-linecap="round"/>
<path id="Vector_2" d="M5.4707 8.3291L7.3207 12.3391C8.0307 11.1491 8.7407 9.9591 9.4507 8.7691C9.8407 9.9691 10.4507 11.0991 11.2507 12.0791C11.6807 10.8491 12.1107 9.6291 12.5307 8.3991" stroke="#00C4C4" stroke-width="2" stroke-miterlimit="10" stroke-linecap="round"/>
</g>
</g>
</svg>
